<svg xmlns="http://www.w3.org/2000/svg" width="36" height="29.256" viewBox="0 0 36 29.256">
  <path id="Twitter_Icon" data-name="Twitter Icon" d="M36,5.711a14.746,14.746,0,0,1-4.242,1.163,7.4,7.4,0,0,0,3.248-4.086,14.8,14.8,0,0,1-4.691,1.793,7.391,7.391,0,0,0-12.587,6.735A20.967,20.967,0,0,1,2.507,3.6a7.4,7.4,0,0,0,2.284,9.861,7.354,7.354,0,0,1-3.344-.924,7.391,7.391,0,0,0,5.923,7.335A7.4,7.4,0,0,1,4.035,20a7.391,7.391,0,0,0,6.9,5.129A14.85,14.85,0,0,1,0,28.186,20.909,20.909,0,0,0,11.322,31.5c13.713,0,21.461-11.582,20.993-21.969A15.037,15.037,0,0,0,36,5.712Z" transform="translate(0 -2.248)" fill="#55acee"/>
</svg>
